<svg width="160" height="46" viewBox="0 0 160 46" fill="none" xmlns="http://www.w3.org/2000/svg">
<path fill-rule="evenodd" clip-rule="evenodd" d="M2.42338 17.1494C-0.807798 20.3806 -0.807792 25.6194 2.42339 28.8506L13.1494 39.5766C16.3806 42.8078 21.6194 42.8078 24.8506 39.5766L35.5766 28.8506C38.8078 25.6194 38.8078 20.3806 35.5766 17.1494L24.8506 6.42338C21.6194 3.1922 16.3806 3.19221 13.1494 6.42339L2.42338 17.1494ZM12.404 14.4507C11.3269 14.4507 10.4537 15.3239 10.4537 16.401V29.078C10.4537 30.1551 11.3269 31.0283 12.404 31.0283C12.8613 31.0283 13.2819 30.8708 13.6145 30.6072C13.6747 30.5598 13.7327 30.5083 13.7882 30.4528L26.4556 17.7854C27.2172 17.0238 27.2172 15.7889 26.4556 15.0273C25.694 14.2657 24.4591 14.2657 23.6975 15.0273L15.1404 23.5844C14.8503 23.8745 14.3543 23.669 14.3543 23.2588V16.401C14.3543 15.3239 13.4811 14.4507 12.404 14.4507ZM19.7418 26.4971C19.5514 26.3067 19.5514 25.998 19.7418 25.8076L21.8104 23.739C22.0008 23.5486 22.3095 23.5486 22.5 23.739L26.9819 28.221C27.7436 28.9826 27.7436 30.2175 26.9819 30.9791C26.2203 31.7407 24.9854 31.7407 24.2238 30.9791L19.7418 26.4971Z" fill="url(#paint0_linear_3681_4535)"/>
<path d="M69.912 9.868H75.156L63.148 21.534L76.904 37H71.356L60.336 24.232L56.802 27.614V37H52.66V9.868H56.802V22.978L69.912 9.868ZM79.1843 17.354H83.2123V29.324C83.2123 30.996 83.5543 32.212 84.2763 32.972C84.9603 33.732 86.1003 34.15 87.6583 34.15C88.7223 34.15 89.6723 33.694 90.5843 32.858C91.4963 31.984 92.1423 30.806 92.4843 29.362V17.354H96.5123V37H92.4843V34.34C90.8123 36.468 88.7603 37.532 86.2903 37.532C81.5403 37.532 79.1843 34.872 79.1843 29.59V17.354ZM103.966 9.488C104.764 9.488 105.448 9.716 105.98 10.248C106.512 10.742 106.778 11.388 106.778 12.186C106.778 12.984 106.474 13.63 105.942 14.162C105.41 14.656 104.726 14.922 103.966 14.922C103.168 14.922 102.522 14.656 101.99 14.162C101.458 13.63 101.192 12.946 101.192 12.186C101.192 11.388 101.458 10.742 101.99 10.248C102.522 9.716 103.168 9.488 103.966 9.488ZM101.952 17.354H105.98V37H101.952V17.354ZM111.432 9.336H115.46V25.448L123.972 17.354H129.178L120.476 25.448L129.938 37H124.77L117.702 28.032L115.46 30.122V37H111.432V9.336ZM132.67 9.336H136.698V37H132.67V9.336ZM139.624 17.354H143.994L149.39 31.68L154.558 17.354H158.966L148.288 44.524H143.994L147.414 36.544L139.624 17.354Z" fill="#122440"/>
<defs>
<linearGradient id="paint0_linear_3681_4535" x1="19" y1="42" x2="19.9499" y2="4" gradientUnits="userSpaceOnUse">
<stop stop-color="#AF36FE"/>
<stop offset="1" stop-color="#45C4FE"/>
</linearGradient>
</defs>
</svg>
